<mxfile host="app.diagrams.net" modified="2021-10-05T20:33:25.541Z" agent="5.0 (Macintosh; Intel Mac OS X 10_15_7) AppleWebKit/537.36 (KHTML, like Gecko) Chrome/92.0.4515.107 Safari/537.36" etag="k7Pno4yBI1fHM7Rn-KeQ" version="15.4.1" type="github">
  <diagram id="ZquUUGyXJe_Qvr_7XvCy" name="Page-1">
    <mxGraphModel dx="1256" dy="758" grid="1" gridSize="10" guides="1" tooltips="1" connect="1" arrows="1" fold="1" page="1" pageScale="1" pageWidth="1700" pageHeight="1100" math="0" shadow="0">
      <root>
        <mxCell id="0" />
        <mxCell id="1" parent="0" />
        <mxCell id="8DuPyfKWB4wm-RqL57NH-3" value="trp-core.base" style="rounded=0;whiteSpace=wrap;html=1;fontSize=16;" parent="1" vertex="1">
          <mxGeometry x="595" y="160" width="120" height="60" as="geometry" />
        </mxCell>
        <mxCell id="8DuPyfKWB4wm-RqL57NH-8" style="edgeStyle=orthogonalEdgeStyle;rounded=0;orthogonalLoop=1;jettySize=auto;html=1;exitX=0;exitY=0.5;exitDx=0;exitDy=0;entryX=0.5;entryY=1;entryDx=0;entryDy=0;fontSize=16;endArrow=block;endFill=1;strokeWidth=2;" parent="1" source="8DuPyfKWB4wm-RqL57NH-4" target="8DuPyfKWB4wm-RqL57NH-7" edge="1">
          <mxGeometry relative="1" as="geometry" />
        </mxCell>
        <mxCell id="8DuPyfKWB4wm-RqL57NH-9" value="embed" style="edgeLabel;html=1;align=center;verticalAlign=middle;resizable=0;points=[];fontSize=16;" parent="8DuPyfKWB4wm-RqL57NH-8" vertex="1" connectable="0">
          <mxGeometry x="0.4667" relative="1" as="geometry">
            <mxPoint y="-22" as="offset" />
          </mxGeometry>
        </mxCell>
        <mxCell id="8DuPyfKWB4wm-RqL57NH-11" style="edgeStyle=orthogonalEdgeStyle;rounded=0;orthogonalLoop=1;jettySize=auto;html=1;exitX=1;exitY=0.5;exitDx=0;exitDy=0;entryX=0.5;entryY=1;entryDx=0;entryDy=0;fontSize=16;endArrow=block;endFill=1;dashed=1;strokeWidth=2;" parent="1" source="8DuPyfKWB4wm-RqL57NH-4" target="8DuPyfKWB4wm-RqL57NH-10" edge="1">
          <mxGeometry relative="1" as="geometry" />
        </mxCell>
        <mxCell id="8DuPyfKWB4wm-RqL57NH-12" value="dependencies" style="edgeLabel;html=1;align=center;verticalAlign=middle;resizable=0;points=[];fontSize=16;" parent="8DuPyfKWB4wm-RqL57NH-11" vertex="1" connectable="0">
          <mxGeometry x="0.4754" y="1" relative="1" as="geometry">
            <mxPoint x="1" y="-10" as="offset" />
          </mxGeometry>
        </mxCell>
        <mxCell id="8DuPyfKWB4wm-RqL57NH-4" value="trp-core.site" style="rounded=0;whiteSpace=wrap;html=1;fontSize=16;" parent="1" vertex="1">
          <mxGeometry x="595" y="330" width="120" height="60" as="geometry" />
        </mxCell>
        <mxCell id="8DuPyfKWB4wm-RqL57NH-5" value="" style="endArrow=block;html=1;fontSize=16;entryX=0.5;entryY=1;entryDx=0;entryDy=0;endFill=1;strokeWidth=2;" parent="1" source="8DuPyfKWB4wm-RqL57NH-4" target="8DuPyfKWB4wm-RqL57NH-3" edge="1">
          <mxGeometry width="50" height="50" relative="1" as="geometry">
            <mxPoint x="560" y="470" as="sourcePoint" />
            <mxPoint x="610" y="420" as="targetPoint" />
          </mxGeometry>
        </mxCell>
        <mxCell id="8DuPyfKWB4wm-RqL57NH-6" value="embed" style="edgeLabel;html=1;align=center;verticalAlign=middle;resizable=0;points=[];fontSize=16;" parent="8DuPyfKWB4wm-RqL57NH-5" vertex="1" connectable="0">
          <mxGeometry x="-0.2" y="-1" relative="1" as="geometry">
            <mxPoint as="offset" />
          </mxGeometry>
        </mxCell>
        <mxCell id="8DuPyfKWB4wm-RqL57NH-7" value="trp-core.grid" style="rounded=0;whiteSpace=wrap;html=1;fontSize=16;" parent="1" vertex="1">
          <mxGeometry x="250" y="160" width="120" height="60" as="geometry" />
        </mxCell>
        <mxCell id="8DuPyfKWB4wm-RqL57NH-10" value="trp-core.dependencies" style="rounded=0;html=1;fontSize=16;" parent="1" vertex="1">
          <mxGeometry x="940" y="160" width="200" height="60" as="geometry" />
        </mxCell>
        <mxCell id="8DuPyfKWB4wm-RqL57NH-14" style="edgeStyle=orthogonalEdgeStyle;rounded=0;orthogonalLoop=1;jettySize=auto;html=1;exitX=0.5;exitY=0;exitDx=0;exitDy=0;entryX=0.5;entryY=1;entryDx=0;entryDy=0;fontSize=16;endArrow=block;endFill=1;" parent="1" source="8DuPyfKWB4wm-RqL57NH-13" target="8DuPyfKWB4wm-RqL57NH-4" edge="1">
          <mxGeometry relative="1" as="geometry" />
        </mxCell>
        <mxCell id="8DuPyfKWB4wm-RqL57NH-15" value="embed" style="edgeLabel;html=1;align=center;verticalAlign=middle;resizable=0;points=[];fontSize=16;" parent="8DuPyfKWB4wm-RqL57NH-14" vertex="1" connectable="0">
          <mxGeometry x="-0.1111" y="-1" relative="1" as="geometry">
            <mxPoint as="offset" />
          </mxGeometry>
        </mxCell>
        <mxCell id="5RZj6oFRvGGqCRrTdLBx-1" style="edgeStyle=none;curved=1;rounded=0;orthogonalLoop=1;jettySize=auto;html=1;entryX=1;entryY=0.5;entryDx=0;entryDy=0;endArrow=block;sourcePerimeterSpacing=8;targetPerimeterSpacing=8;exitX=0;exitY=0.5;exitDx=0;exitDy=0;endFill=1;strokeWidth=2;" parent="1" source="8DuPyfKWB4wm-RqL57NH-13" target="67n1Mli2JnGAlu0fP6Hh-1" edge="1">
          <mxGeometry relative="1" as="geometry" />
        </mxCell>
        <mxCell id="5RZj6oFRvGGqCRrTdLBx-2" value="embed" style="edgeLabel;html=1;align=center;verticalAlign=middle;resizable=0;points=[];fontSize=16;" parent="5RZj6oFRvGGqCRrTdLBx-1" vertex="1" connectable="0">
          <mxGeometry x="-0.1349" relative="1" as="geometry">
            <mxPoint as="offset" />
          </mxGeometry>
        </mxCell>
        <mxCell id="8DuPyfKWB4wm-RqL57NH-13" value="my-project.base" style="rounded=0;whiteSpace=wrap;html=1;fontSize=16;" parent="1" vertex="1">
          <mxGeometry x="567.5" y="480" width="175" height="60" as="geometry" />
        </mxCell>
        <mxCell id="67n1Mli2JnGAlu0fP6Hh-1" value="trp-core.cmp.componentname" style="rounded=0;whiteSpace=wrap;html=1;fontSize=16;" parent="1" vertex="1">
          <mxGeometry x="160" y="480" width="300" height="60" as="geometry" />
        </mxCell>
      </root>
    </mxGraphModel>
  </diagram>
</mxfile>
